<svg version="1.2" xmlns="http://www.w3.org/2000/svg" viewBox="0 0 600 139" width="600" height="139">
	<style>
		.s0 { fill: #ffffff } 
	</style>
	<g id="Layer 1">
		<path id="SADIX." class="s0" aria-label="SADIX."  d="m109 98.6q0-6.4-4.6-10-4.5-3.6-16-7.4-11.4-3.9-18.7-7.5-23.7-11.6-23.7-31.9 0-10.1 5.9-17.8 5.9-7.8 16.7-12.1 10.8-4.3 24.3-4.3 13.1 0 23.4 4.7 10.5 4.7 16.3 13.3 5.7 8.7 5.7 19.8h-29.2q0-7.5-4.6-11.6-4.5-4.1-12.3-4.1-7.9 0-12.5 3.6-4.5 3.4-4.5 8.7 0 4.7 5 8.6 5 3.7 17.7 7.8 12.6 4 20.7 8.7 19.7 11.4 19.7 31.4 0 15.9-12 25.1-12 9.1-33 9.1-14.8 0-26.9-5.3-11.9-5.3-18-14.5-6-9.3-6-21.4h29.4q0 9.8 5 14.5 5.1 4.6 16.5 4.6 7.2 0 11.4-3.1 4.3-3.2 4.3-8.9zm120.5 32.4l-7.2-22.7h-40.2l-7 22.7h-31.4l44.7-121.7h27.6l45 121.7zm-27.3-87.6l-13 42.2h26.1zm108.1 87.6h-40.1v-121.7h39.3q16.1 0 29 7.3 12.8 7.3 20 20.7 7.3 13.3 7.4 29.8v5.6q0 16.8-7.1 30.1-7 13.2-19.9 20.7-12.8 7.4-28.6 7.5zm-0.8-99.1h-9.9v76.5h10.2q12.6 0 19.4-8.9 6.8-9 6.8-26.8v-5.2q0-17.7-6.8-26.6-6.8-9-19.7-9zm103-22.6v121.7h-29.2v-121.7zm47.2 0l19.9 40.5 19.9-40.5h33.5l-34 60.4 34.9 61.3h-33.8l-20.5-41.2-20.5 41.2h-33.8l34.9-61.3-34-60.4zm99.7 94.4q6.7 0 11.1 4 4.4 3.9 4.4 10.1 0 6.2-4.4 10.2-4.4 3.9-11.1 3.9-6.8 0-11.2-4-4.4-4-4.4-10.1 0-6.1 4.4-10.1 4.4-4 11.2-4z"/>
	</g>
</svg>