<svg version="1.2" xmlns="http://www.w3.org/2000/svg" viewBox="0 0 600 139" width="600" height="139">
	<style>
		.s0 { fill: #ffffff } 
	</style>
	<g id="Layer 1">
		<path id="SADIX." class="s0" aria-label="SADIX."  d="m87 76.7q-20.7-5.9-30.1-14.5-9.4-8.7-9.4-21.4 0-14.4 11.5-23.8 11.5-9.4 29.9-9.4 12.6 0 22.3 4.8 9.9 4.9 15.3 13.4 5.4 8.5 5.4 18.7h-16.1q0-11.1-7.1-17.3-7-6.4-19.8-6.4-11.9 0-18.5 5.3-6.6 5.2-6.6 14.4 0 7.5 6.2 12.7 6.4 5.1 21.5 9.3 15.2 4.3 23.8 9.5 8.6 5.1 12.7 11.9 4.1 6.9 4.1 16.2 0 14.8-11.5 23.7-11.5 8.9-30.8 8.9-12.6 0-23.5-4.8-10.8-4.8-16.8-13.2-5.8-8.4-5.8-19h16.1q0 11.1 8.1 17.5 8.2 6.3 21.9 6.3 12.7 0 19.4-5.1 6.8-5.2 6.8-14.2 0-8.9-6.3-13.8-6.2-4.9-22.7-9.7zm145 54.3l-11.6-31.8h-51l-11.5 31.8h-16.6l46.5-121.7h14.1l46.5 121.7zm-37.1-101.9l-20.6 56.9h41.4zm102.9 101.9h-33.7v-121.7h34.4q15.9 0 28.1 7 12.2 7 18.8 20 6.7 13 6.8 29.8v7.7q0 17.3-6.7 30.2-6.6 13-19 19.9-12.3 7-28.7 7.1zm1.1-108.5h-18.7v95.4h16.9q18.5 0 28.8-11.5 10.4-11.6 10.4-32.9v-7.1q0-20.7-9.8-32.2-9.7-11.5-27.6-11.7zm95.5-13.2v121.7h-16.1v-121.7zm41.2 0l29.3 46.7 29.2-46.7h18.9l-38.5 60.4 39.4 61.3h-19.1l-29.9-47.5-30.1 47.5h-19l39.5-61.3-38.6-60.4zm94.6 113.6q0-4 2.3-6.7 2.4-2.6 7.2-2.6 4.8 0 7.2 2.6 2.5 2.7 2.5 6.7 0 3.9-2.5 6.5-2.4 2.6-7.2 2.6-4.8 0-7.2-2.6-2.3-2.6-2.3-6.5z"/>
	</g>
</svg>