<svg version="1.2" xmlns="http://www.w3.org/2000/svg" viewBox="0 0 32 32" width="32" height="32">
	<style>
		.s0 { fill: #000000 } 
	</style>
	<path id="SADIX." class="s0" aria-label="S."  d="m16.4 22.5q0-1.3-0.9-2-0.9-0.7-3.2-1.5-2.3-0.8-3.7-1.5-4.8-2.3-4.8-6.4 0-2 1.2-3.6 1.2-1.5 3.3-2.4 2.2-0.8 4.9-0.8 2.6 0 4.7 0.9 2.1 0.9 3.3 2.7 1.1 1.7 1.1 3.9h-5.8q0-1.5-1-2.3-0.9-0.8-2.4-0.8-1.6 0-2.5 0.7-0.9 0.7-0.9 1.8 0 0.9 1 1.7 1 0.7 3.5 1.5 2.5 0.9 4.2 1.8 3.9 2.3 3.9 6.3 0 3.2-2.4 5-2.4 1.8-6.6 1.8-3 0-5.4-1-2.4-1.1-3.6-2.9-1.2-1.9-1.2-4.3h5.9q0 1.9 1 2.9 1 0.9 3.3 0.9 1.4 0 2.3-0.6 0.8-0.6 0.8-1.8zm11.7 1q1.3 0 2.2 0.8 0.9 0.8 0.9 2.1 0 1.2-0.9 2-0.9 0.8-2.2 0.8-1.4 0-2.3-0.8-0.8-0.8-0.8-2 0-1.3 0.8-2.1 0.9-0.8 2.3-0.8z"/>
	<g id="Layer 1">
	</g>
</svg>